<svg xmlns="http://www.w3.org/2000/svg" width="22.313" height="26.531" viewBox="0 0 22.313 26.531">
  <metadata><?xpacket begin="﻿" id="W5M0MpCehiHzreSzNTczkc9d"?>
<x:xmpmeta xmlns:x="adobe:ns:meta/" x:xmptk="Adobe XMP Core 5.6-c138 79.159824, 2016/09/14-01:09:01        ">
   <rdf:RDF xmlns:rdf="http://www.w3.org/1999/02/22-rdf-syntax-ns#">
      <rdf:Description rdf:about=""/>
   </rdf:RDF>
</x:xmpmeta>
                                                                                                    
                                                                                                    
                                                                                                    
                                                                                                    
                                                                                                    
                                                                                                    
                                                                                                    
                                                                                                    
                                                                                                    
                                                                                                    
                                                                                                    
                                                                                                    
                                                                                                    
                                                                                                    
                                                                                                    
                                                                                                    
                                                                                                    
                                                                                                    
                                                                                                    
                                                                                                    
                           
<?xpacket end="w"?></metadata>
<defs>
    <style>
      .cls-1 {
        fill: #fff;
        fill-rule: evenodd;
      }
    </style>
  </defs>
  <path id="形状_26_拷贝" data-name="形状 26 拷贝" class="cls-1" d="M73.126,757.888A11.153,11.153,0,1,0,61.944,769.07a11.111,11.111,0,0,0,11.182-11.182h0Zm-11.173,6.494a6.463,6.463,0,1,1,6.486-6.442,6.484,6.484,0,0,1-6.486,6.442h0Zm0,0M61.8,753.365c1.336,1.183,1.676,2.147,1.164,3.323a2.519,2.519,0,0,1-2.627,1.5c-1.248-.142-1.952-0.94-2.282-2.6a4.449,4.449,0,0,0,.323,5.2,4.6,4.6,0,0,0,7.927-4.435,4.5,4.5,0,0,0-4.5-2.987h0Zm5.142,16.514a0.3,0.3,0,0,0-.434-0.066,12.956,12.956,0,0,1-3.808.83v2.679h8.706c-0.147-.086-0.2-0.124-0.254-0.149a11.477,11.477,0,0,1-4.211-3.294h0Zm-10,.079a10.966,10.966,0,0,1-3.476,2.866c-0.279.152-.558,0.3-0.933,0.5H61.24v-2.679a12.889,12.889,0,0,1-3.78-.826,0.38,0.38,0,0,0-.517.141h0Zm0,0" transform="translate(-50.813 -746.781)"/>
</svg>
