<svg xmlns="http://www.w3.org/2000/svg" width="25.69" height="25.688" viewBox="0 0 25.69 25.688">
  <metadata><?xpacket begin="﻿" id="W5M0MpCehiHzreSzNTczkc9d"?>
<x:xmpmeta xmlns:x="adobe:ns:meta/" x:xmptk="Adobe XMP Core 5.6-c138 79.159824, 2016/09/14-01:09:01        ">
   <rdf:RDF xmlns:rdf="http://www.w3.org/1999/02/22-rdf-syntax-ns#">
      <rdf:Description rdf:about=""/>
   </rdf:RDF>
</x:xmpmeta>
                                                                                                    
                                                                                                    
                                                                                                    
                                                                                                    
                                                                                                    
                                                                                                    
                                                                                                    
                                                                                                    
                                                                                                    
                                                                                                    
                                                                                                    
                                                                                                    
                                                                                                    
                                                                                                    
                                                                                                    
                                                                                                    
                                                                                                    
                                                                                                    
                                                                                                    
                                                                                                    
                           
<?xpacket end="w"?></metadata>
<defs>
    <style>
      .cls-1 {
        fill: #fff;
        fill-rule: evenodd;
      }
    </style>
  </defs>
  <path id="形状_27_拷贝" data-name="形状 27 拷贝" class="cls-1" d="M1471.61,761.014a6.3,6.3,0,0,0-5-7.381,6.4,6.4,0,0,0-1.19-.115,6.307,6.307,0,1,0,2.76,11.977c0.03,0.048.05,0.1,0.08,0.143l1.8,2.654a0.913,0.913,0,0,0,1.27.244,0.92,0.92,0,0,0,.24-1.267l-1.8-2.651a0.769,0.769,0,0,0-.1-0.129,6.21,6.21,0,0,0,1.94-3.475h0Zm-2.41-1.639-0.7-.545a0.606,0.606,0,0,0-.38-0.172,0.452,0.452,0,0,0-.09,0h0a0.685,0.685,0,0,0-.38.106,0.426,0.426,0,0,0-.21.3l-0.62,1.456-1-3.108a0.585,0.585,0,0,0-.57-0.341h-0.02a0.618,0.618,0,0,0-.55.278v0.006l-1.32,3.087-1.19-.923a0.683,0.683,0,0,0-.42-0.132h-0.78c0.01-.131.03-0.266,0.05-0.4a4.5,4.5,0,0,1,4.4-3.638,4.7,4.7,0,0,1,.85.081,4.424,4.424,0,0,1,2.86,1.886,4.485,4.485,0,0,1,.76,2.064h-0.69Zm-7.7.923,1.7,1.307a0.674,0.674,0,0,0,.41.132h0.02a0.6,0.6,0,0,0,.54-0.278l0.01-.006,0.98-2.313,1.01,3.124a0.574,0.574,0,0,0,.57.341h0.01a0.58,0.58,0,0,0,.58-0.37l0.96-2.264,0.23,0.183a0.6,0.6,0,0,0,.17.089,0.739,0.739,0,0,0,.27.052h0.92c-0.01.126-.03,0.249-0.05,0.375a4.5,4.5,0,0,1-4.4,3.638,4.8,4.8,0,0,1-.85-0.08,4.492,4.492,0,0,1-3.61-3.927Zm17.18,0.6a12.84,12.84,0,1,1-12.84-12.842,12.842,12.842,0,0,1,12.84,12.842h0Zm0,0" transform="translate(-1453 -748.062)"/>
</svg>
