<svg xmlns="http://www.w3.org/2000/svg" width="33.72" height="31.281" viewBox="0 0 33.72 31.281">
  <metadata><?xpacket begin="﻿" id="W5M0MpCehiHzreSzNTczkc9d"?>
<x:xmpmeta xmlns:x="adobe:ns:meta/" x:xmptk="Adobe XMP Core 5.6-c138 79.159824, 2016/09/14-01:09:01        ">
   <rdf:RDF xmlns:rdf="http://www.w3.org/1999/02/22-rdf-syntax-ns#">
      <rdf:Description rdf:about=""/>
   </rdf:RDF>
</x:xmpmeta>
                                                                                                    
                                                                                                    
                                                                                                    
                                                                                                    
                                                                                                    
                                                                                                    
                                                                                                    
                                                                                                    
                                                                                                    
                                                                                                    
                                                                                                    
                                                                                                    
                                                                                                    
                                                                                                    
                                                                                                    
                                                                                                    
                                                                                                    
                                                                                                    
                                                                                                    
                                                                                                    
                           
<?xpacket end="w"?></metadata>
<defs>
    <style>
      .cls-1 {
        fill: #fff;
        fill-rule: evenodd;
      }
    </style>
  </defs>
  <path id="形状_24_拷贝" data-name="形状 24 拷贝" class="cls-1" d="M1015.23,762.047h-3.86a0.62,0.62,0,0,1,0-1.208h3.86a0.617,0.617,0,0,1,0,1.208h0Zm-4.53,11.243a0.527,0.527,0,0,1-.73.082l-2.58-2.587a0.517,0.517,0,0,1,.08-0.728,0.526,0.526,0,0,1,.73-0.082l2.58,2.586a0.518,0.518,0,0,1-.08.729h0Zm-11.841-2.22a9.714,9.714,0,0,1-9.624-9.8,9.821,9.821,0,0,1,5.245-8.73v-1.076a4.381,4.381,0,1,1,8.76,0v1.076a9.824,9.824,0,0,1,5.24,8.73,9.714,9.714,0,0,1-9.621,9.8h0Zm-9.131-1.1a0.554,0.554,0,0,1,.087.767l-2.722,2.721a0.619,0.619,0,0,1-.853-0.853l2.721-2.721a0.553,0.553,0,0,1,.767.086h0Zm-3.383-7.925h-3.862a0.619,0.619,0,0,1,0-1.207h3.862a0.619,0.619,0,0,1,0,1.208h0Zm12.514,11.431a0.552,0.552,0,0,1,.6.481v3.848a0.618,0.618,0,0,1-1.206,0v-3.848a0.552,0.552,0,0,1,.6-0.481h0Zm0,0" transform="translate(-982 -747)"/>
</svg>
