<svg  xmlns="http://www.w3.org/2000/svg" xmlns:xlink="http://www.w3.org/1999/xlink" width="35px" height="37px"><defs><linearGradient id="PSgrad_0" x1="0%" x2="100%" y1="0%" y2="0%">  <stop offset="0%" stop-color="rgb(118,158,255)" stop-opacity="1" />  <stop offset="100%" stop-color="rgb(15,65,232)" stop-opacity="1" /></linearGradient></defs><path fill-rule="evenodd"  fill="rgb(94, 136, 255)" d="M33.006,19.708 L30.797,22.219 L28.229,22.219 C28.802,23.082 29.121,24.204 29.121,25.665 C29.121,31.597 24.134,36.406 17.983,36.406 C11.831,36.406 6.844,31.597 6.844,25.665 C6.844,24.204 7.132,23.082 7.658,22.219 L5.457,22.219 L2.565,19.708 L0.281,19.708 L0.281,6.843 C0.187,6.604 0.123,6.363 0.123,6.115 C0.123,2.992 7.810,0.460 17.293,0.460 C26.775,0.460 34.463,2.992 34.463,6.115 L34.463,19.708 L33.006,19.708 ZM17.982,31.414 C20.461,31.414 22.471,29.476 22.471,27.086 C22.471,24.696 20.461,22.758 17.982,22.758 C15.503,22.758 13.494,24.696 13.494,27.086 C13.494,29.477 15.503,31.414 17.982,31.414 ZM17.960,25.705 C18.910,25.705 19.679,26.447 19.679,27.362 C19.679,27.954 19.351,28.501 18.820,28.797 C18.288,29.094 17.633,29.094 17.101,28.797 C16.569,28.501 16.242,27.954 16.242,27.362 C16.242,26.447 17.011,25.705 17.960,25.705 Z"/><path fill="url(#PSgrad_0)" d="M33.006,19.708 L30.797,22.219 L28.229,22.219 C28.802,23.082 29.121,24.204 29.121,25.665 C29.121,31.597 24.134,36.406 17.983,36.406 C11.831,36.406 6.844,31.597 6.844,25.665 C6.844,24.204 7.132,23.082 7.658,22.219 L5.457,22.219 L2.565,19.708 L0.281,19.708 L0.281,6.843 C0.187,6.604 0.123,6.363 0.123,6.115 C0.123,2.992 7.810,0.460 17.293,0.460 C26.775,0.460 34.463,2.992 34.463,6.115 L34.463,19.708 L33.006,19.708 ZM17.982,31.414 C20.461,31.414 22.471,29.476 22.471,27.086 C22.471,24.696 20.461,22.758 17.982,22.758 C15.503,22.758 13.494,24.696 13.494,27.086 C13.494,29.477 15.503,31.414 17.982,31.414 ZM17.960,25.705 C18.910,25.705 19.679,26.447 19.679,27.362 C19.679,27.954 19.351,28.501 18.820,28.797 C18.288,29.094 17.633,29.094 17.101,28.797 C16.569,28.501 16.242,27.954 16.242,27.362 C16.242,26.447 17.011,25.705 17.960,25.705 Z"/></svg>