<svg  xmlns="http://www.w3.org/2000/svg" xmlns:xlink="http://www.w3.org/1999/xlink" width="21px" height="17px"><path fill-rule="evenodd"  fill="rgb(255, 255, 255)" d="M19.797,16.318 L15.492,16.318 C14.897,16.318 14.415,15.836 14.415,15.242 L14.415,8.788 C14.415,8.194 14.897,7.712 15.492,7.712 L19.797,7.712 C20.392,7.712 20.874,8.194 20.874,8.788 L20.874,15.242 C20.874,15.836 20.392,16.318 19.797,16.318 L19.797,16.318 ZM13.337,7.712 L13.337,13.091 L12.261,13.091 L12.722,15.822 C12.789,16.071 12.611,16.319 12.366,16.319 L7.850,16.319 C7.605,16.319 7.428,16.071 7.494,15.822 L7.954,13.091 L1.872,13.091 C1.069,13.090 0.419,12.403 0.419,11.553 L0.419,1.719 C0.419,0.871 1.069,0.182 1.872,0.182 L18.345,0.182 C19.148,0.182 19.799,0.871 19.799,1.719 L19.799,6.637 L14.415,6.637 C13.819,6.637 13.337,7.118 13.337,7.712 L13.337,7.712 Z"/></svg>