<svg  xmlns="http://www.w3.org/2000/svg" xmlns:xlink="http://www.w3.org/1999/xlink" width="16px" height="25px"><path fill-rule="evenodd"  fill="rgb(255, 255, 255)" d="M9.139,24.099 L7.063,24.099 C3.567,24.099 0.781,21.253 0.781,17.805 L0.781,11.184 L15.421,11.184 L15.421,17.805 C15.421,21.308 12.580,24.099 9.139,24.099 ZM8.101,13.427 C7.118,13.427 6.353,14.194 6.353,15.179 C6.353,15.781 6.735,16.328 7.227,16.656 L7.227,18.681 C7.227,19.119 7.555,19.447 7.992,19.447 L8.210,19.447 C8.647,19.447 8.975,19.119 8.975,18.681 L8.975,16.656 C9.467,16.383 9.849,15.835 9.849,15.179 C9.849,14.194 9.084,13.427 8.101,13.427 ZM11.269,5.328 C11.269,2.920 8.920,3.030 8.920,3.030 C8.811,3.030 8.430,3.030 7.227,3.030 C4.933,3.030 4.769,5.492 4.769,5.492 L4.769,7.298 L2.802,7.298 L2.802,5.438 C2.802,2.920 4.824,0.841 7.391,0.841 L8.757,0.841 C11.269,0.841 13.345,2.866 13.345,5.438 L13.345,9.816 L11.269,9.816 C11.269,9.816 11.324,7.900 11.269,5.328 Z"/></svg>