<svg  xmlns="http://www.w3.org/2000/svg" xmlns:xlink="http://www.w3.org/1999/xlink" width="18px" height="19px"><path fill-rule="evenodd"  fill="rgb(255, 255, 255)" d="M15.000,19.000 L3.000,19.000 C1.343,19.000 -0.000,17.657 -0.000,16.000 L-0.000,3.000 C-0.000,1.343 1.343,-0.000 3.000,-0.000 L15.000,-0.000 C16.657,-0.000 18.000,1.343 18.000,3.000 L18.000,16.000 C18.000,17.657 16.657,19.000 15.000,19.000 ZM4.000,15.000 L10.000,15.000 C10.552,15.000 11.000,14.552 11.000,14.000 C11.000,13.448 10.552,13.000 10.000,13.000 L4.000,13.000 C3.448,13.000 3.000,13.448 3.000,14.000 C3.000,14.552 3.448,15.000 4.000,15.000 ZM4.000,10.500 L9.994,10.500 C10.546,10.500 10.994,10.052 10.994,9.500 C10.994,8.948 10.546,8.500 9.994,8.500 L4.000,8.500 C3.448,8.500 3.000,8.948 3.000,9.500 C3.000,10.052 3.448,10.500 4.000,10.500 ZM14.000,4.000 L4.000,4.000 C3.448,4.000 3.000,4.448 3.000,5.000 C3.000,5.552 3.448,6.000 4.000,6.000 L14.000,6.000 C14.552,6.000 15.000,5.552 15.000,5.000 C15.000,4.448 14.552,4.000 14.000,4.000 Z"/></svg>