<svg  xmlns="http://www.w3.org/2000/svg" xmlns:xlink="http://www.w3.org/1999/xlink" width="18px" height="22px"><path fill-rule="evenodd"  fill="rgb(255, 255, 255)" d="M17.609,17.492 C17.609,18.493 17.324,19.349 16.751,20.065 C16.178,20.781 15.486,21.138 14.680,21.138 L2.929,21.138 C2.121,21.138 1.432,20.778 0.858,20.065 C0.285,19.349 -0.000,18.491 -0.000,17.492 C-0.000,16.713 0.037,15.976 0.116,15.284 C0.195,14.592 0.338,13.895 0.549,13.192 C0.761,12.492 1.030,11.890 1.355,11.391 C1.680,10.891 2.113,10.482 2.649,10.168 C3.186,9.853 3.804,9.692 4.501,9.692 C5.703,10.868 7.138,11.454 8.807,11.454 C10.477,11.454 11.911,10.868 13.113,9.692 C13.811,9.692 14.426,9.851 14.965,10.168 C15.501,10.482 15.932,10.891 16.260,11.391 C16.585,11.892 16.854,12.489 17.065,13.192 C17.277,13.892 17.422,14.589 17.499,15.284 C17.573,15.976 17.609,16.713 17.609,17.492 ZM12.540,1.554 C13.573,2.587 14.088,3.831 14.088,5.289 C14.088,6.747 13.573,7.991 12.540,9.024 C11.507,10.057 10.263,10.572 8.805,10.572 C7.346,10.572 6.102,10.057 5.069,9.024 C4.036,7.991 3.521,6.747 3.521,5.289 C3.521,3.831 4.036,2.587 5.069,1.554 C6.102,0.521 7.346,0.006 8.805,0.006 C10.263,0.006 11.507,0.521 12.540,1.554 Z"/></svg>