<svg  xmlns="http://www.w3.org/2000/svg" xmlns:xlink="http://www.w3.org/1999/xlink" width="17px" height="16px"><path fill-rule="evenodd"  fill="rgb(255, 255, 255)" d="M1.837,2.279 C2.054,2.014 2.272,1.766 2.489,1.537 C2.658,1.332 2.836,1.139 3.023,0.958 C3.211,0.777 3.352,0.644 3.449,0.560 C3.582,0.451 3.724,0.354 3.875,0.270 C4.026,0.186 4.228,0.143 4.482,0.143 L12.308,0.143 C12.465,0.143 12.646,0.177 12.852,0.243 C13.057,0.309 13.256,0.445 13.450,0.650 C13.546,0.771 13.673,0.922 13.830,1.103 C13.987,1.284 14.138,1.459 14.283,1.628 C14.452,1.833 14.621,2.050 14.790,2.279 L1.837,2.279 ZM16.547,7.692 C16.547,8.078 16.421,8.404 16.167,8.669 C15.913,8.935 15.551,9.067 15.080,9.067 L1.692,9.067 C1.233,9.067 0.867,8.935 0.596,8.669 C0.324,8.404 0.188,8.078 0.188,7.692 L0.188,5.103 C0.188,4.717 0.309,4.385 0.550,4.107 C0.792,3.830 1.185,3.691 1.728,3.691 L15.062,3.691 C15.617,3.691 16.004,3.830 16.221,4.107 C16.439,4.385 16.547,4.717 16.547,5.103 L16.547,7.692 ZM16.493,14.244 C16.493,14.631 16.345,14.962 16.049,15.240 C15.753,15.518 15.376,15.650 14.917,15.638 L1.638,15.638 C1.251,15.638 0.904,15.502 0.596,15.231 C0.288,14.959 0.134,14.582 0.134,14.100 L0.134,11.674 C0.134,11.276 0.258,10.941 0.505,10.669 C0.753,10.398 1.148,10.262 1.692,10.262 L14.990,10.262 C15.497,10.262 15.874,10.398 16.122,10.669 C16.369,10.941 16.493,11.270 16.493,11.656 L16.493,14.244 L16.493,14.244 Z"/></svg>