<svg  xmlns="http://www.w3.org/2000/svg" xmlns:xlink="http://www.w3.org/1999/xlink" width="23px" height="20px"><path fill-rule="evenodd"  fill="rgb(255, 255, 255)" d="M8.797,2.198 C10.417,-0.453 13.044,-0.453 14.665,2.198 L22.192,14.512 C23.813,17.163 22.401,19.312 19.038,19.312 L4.423,19.312 C1.061,19.312 -0.351,17.163 1.269,14.512 L8.797,2.198 ZM12.949,6.163 C12.949,5.558 12.403,5.068 11.731,5.068 C11.058,5.068 10.513,5.559 10.513,6.163 L10.513,11.643 C10.513,12.247 11.058,12.738 11.731,12.738 C12.403,12.738 12.949,12.247 12.949,11.643 L12.949,6.163 ZM12.949,14.929 L10.513,14.929 L10.513,17.121 L12.949,17.121 L12.949,14.929 Z"/></svg>