<svg  xmlns="http://www.w3.org/2000/svg" xmlns:xlink="http://www.w3.org/1999/xlink" width="22px" height="25px"><path fill-rule="evenodd"  fill="rgb(179, 179, 179)" d="M18.764,24.121 L2.640,24.121 C1.304,24.123 0.219,23.045 0.217,21.713 L0.217,12.055 C0.219,10.724 1.302,9.648 2.636,9.648 L2.636,8.039 C2.636,3.533 6.224,-0.001 10.702,-0.001 C15.180,-0.001 18.768,3.533 18.768,8.039 L18.768,9.648 C20.102,9.648 21.185,10.724 21.187,12.055 L21.187,21.713 C21.185,23.045 20.100,24.123 18.764,24.121 ZM10.702,1.607 C7.110,1.607 4.250,4.426 4.250,8.039 L4.250,9.648 L17.155,9.648 L17.155,8.039 C17.155,4.426 14.294,1.607 10.702,1.607 ZM19.574,12.055 C19.572,11.611 19.209,11.253 18.764,11.256 L2.640,11.256 C2.195,11.253 1.832,11.611 1.830,12.055 L1.830,12.055 L1.830,21.713 C1.832,22.157 2.195,22.515 2.640,22.512 L18.764,22.512 C19.209,22.515 19.572,22.157 19.574,21.713 L19.574,12.055 ZM10.702,19.296 C10.257,19.296 9.896,18.936 9.895,18.492 L9.895,15.276 C9.896,14.832 10.257,14.473 10.702,14.472 C11.147,14.472 11.508,14.832 11.509,15.276 L11.509,18.492 C11.508,18.936 11.148,19.296 10.702,19.296 Z"/></svg>