<svg xmlns="http://www.w3.org/2000/svg" width="22.75" height="21.907" viewBox="0 0 22.75 21.907">
  <metadata><?xpacket begin="﻿" id="W5M0MpCehiHzreSzNTczkc9d"?>
<x:xmpmeta xmlns:x="adobe:ns:meta/" x:xmptk="Adobe XMP Core 5.6-c138 79.159824, 2016/09/14-01:09:01        ">
   <rdf:RDF xmlns:rdf="http://www.w3.org/1999/02/22-rdf-syntax-ns#">
      <rdf:Description rdf:about=""/>
   </rdf:RDF>
</x:xmpmeta>
                                                                                                    
                                                                                                    
                                                                                                    
                                                                                                    
                                                                                                    
                                                                                                    
                                                                                                    
                                                                                                    
                                                                                                    
                                                                                                    
                                                                                                    
                                                                                                    
                                                                                                    
                                                                                                    
                                                                                                    
                                                                                                    
                                                                                                    
                                                                                                    
                                                                                                    
                                                                                                    
                           
<?xpacket end="w"?></metadata>
<defs>
    <style>
      .cls-1 {
        fill: #fff;
        fill-rule: evenodd;
      }
    </style>
  </defs>
  <path id="形状_25_拷贝" data-name="形状 25 拷贝" class="cls-1" d="M537.533,766.818h-17.5a2.551,2.551,0,0,1-2.623-2.324V752.1a2.551,2.551,0,0,1,2.623-2.324h17.5a2.551,2.551,0,0,1,2.623,2.324v12.394a2.551,2.551,0,0,1-2.623,2.324h0ZM526.4,763.885a0.937,0.937,0,0,0,.874-0.875v-5.244a0.875,0.875,0,0,0-1.749,0v5.244a0.827,0.827,0,0,0,.875.875h0Zm3.848,0a0.827,0.827,0,0,0,.875-0.875v-2.622a0.875,0.875,0,0,0-1.749,0v2.622a0.826,0.826,0,0,0,.874.875h0Zm3.848,0a0.826,0.826,0,0,0,.875-0.875v-0.874a0.875,0.875,0,0,0-1.749,0v0.874a0.826,0.826,0,0,0,.874.874h0Zm-11.545,0a0.938,0.938,0,0,0,.875-0.875v-7.866a0.875,0.875,0,0,0-1.75,0v7.866a0.827,0.827,0,0,0,.875.875h0Zm0.55,4.556h11.371a1.623,1.623,0,1,1,0,3.246H523.1a1.623,1.623,0,1,1,0-3.246h0Zm0,0" transform="translate(-517.406 -749.781)"/>
</svg>
