<svg  xmlns="http://www.w3.org/2000/svg" xmlns:xlink="http://www.w3.org/1999/xlink" width="25px" height="25px"><path fill-rule="evenodd"  fill="rgb(45, 101, 255)" d="M5.933,8.334 C5.933,4.993 8.693,2.285 12.101,2.285 C15.507,2.285 18.268,4.993 18.268,8.334 C18.268,11.675 15.507,14.382 12.101,14.382 C8.694,14.382 5.933,11.675 5.933,8.334 ZM24.106,23.869 C23.150,19.631 19.966,16.216 15.789,14.935 C18.174,13.649 19.809,11.191 19.809,8.334 C19.809,4.158 16.357,0.772 12.101,0.772 C7.843,0.772 4.391,4.158 4.391,8.334 C4.391,11.191 6.026,13.648 8.411,14.936 C4.234,16.216 1.048,19.632 0.094,23.869 C0.034,23.974 0.002,24.092 -0.000,24.213 C-0.000,24.631 0.346,24.969 0.770,24.969 C1.195,24.969 1.542,24.631 1.542,24.213 L1.562,24.213 C2.621,19.457 6.934,15.895 12.101,15.895 C17.266,15.895 21.579,19.456 22.638,24.213 L22.658,24.213 C22.662,24.635 23.008,24.973 23.429,24.969 C23.856,24.969 24.201,24.631 24.201,24.213 C24.199,24.092 24.167,23.974 24.106,23.869 ZM5.032,24.605 C5.028,24.606 5.031,24.606 5.040,24.606 C5.048,24.606 5.052,24.606 5.048,24.605 C5.054,24.603 5.058,24.603 5.040,24.603 C5.022,24.603 5.025,24.605 5.032,24.605 ZM12.165,11.598 C11.242,11.598 9.840,10.881 9.120,10.254 L8.063,10.254 C9.111,11.802 10.479,12.483 12.165,12.483 C13.845,12.483 15.341,11.798 16.384,10.254 L15.342,10.254 C14.623,10.880 13.087,11.598 12.165,11.598 Z"/></svg>